# xmcd
#
# Track frame offsets: 
#        150
#        2460
#        4726
#        7913
#        9712
#        12677
#        15295
#        18712
#        21058
#        23054
#        25461
#        27570
#        29265
#        30810
#        33564
#        37277
#        40409
#        43318
#        46342
#        49937
#        51519
#        54241
#        60105
#        62260
#        64801
#        68901
#        72432
#        78287
#        82140
#        87417
#        92701
#        96160
#        100117
#        104813
#        106344
#        107905
#        110293
#        112712
#        115306
#        121294
#        125042
#        128473
#        131529
#        133814
#        136298
#        139591
#        142573
#        146147
#        148873
#        152318
#        155908
#        158080
#        160923
#        162780
#        165837
#        170815
#        173149
#        175618
#        179387
#        181712
#        185416
#        190185
#        194194
#        197249
#        199897
#        202505
#        206006
#        210228
#        212708
#        215140
#        217458
#        220859
#        223183
#        225512
#        227834
#        229675
#        232160
#        236521
#        241067
#        243020
#        247667
#        251802
#        254782
#        256848
#        260335
#        265640
#        269029
#        273449
#        276628
#        280676
#        284814
#        289043
#        294404
#        299211
#        301775
#        304367
#
# Disc length: 4098 seconds
#
# Revision: 0
# Processed by: cddbd v1.5.2PL0 Copyright (c) Steve Scherf et al.
# Submitted via: ExactAudioCopy v0.95b4
#
DISCID=8d100060
DTITLE=Andrew D. Gordon - Ultimate Blues Organ Riffs
DYEAR=2004
DGENRE=Blues
TTITLE0=Blues Riff 1
TTITLE1=Blues Riff 2
TTITLE2=Blues Riff 3
TTITLE3=Blues Riff 4
TTITLE4=Blues Riff 5
TTITLE5=Blues Riff 6
TTITLE6=Blues Riff 7
TTITLE7=Blues Riff 8
TTITLE8=Blues Riff 9
TTITLE9=Blues Riff 10
TTITLE10=Blues Riff 11
TTITLE11=Blues Riff 12
TTITLE12=Blues Riff 13
TTITLE13=Blues Riff 14
TTITLE14=Blues Riff 15
TTITLE15=Blues Riff 16
TTITLE16=Blues Riff 17
TTITLE17=Blues Riff 18
TTITLE18=Blues Riff 19
TTITLE19=Blues Riff 20
TTITLE20=Blues Riff 21
TTITLE21=Blues Riff 22
TTITLE22=Blues Riff 23
TTITLE23=Blues Riff 24
TTITLE24=Blues Riff 25
TTITLE25=Blues Riff 26
TTITLE26=Blues Riff 27
TTITLE27=Blues Riff 28
TTITLE28=Blues Riff 29
TTITLE29=Blues Riff 30
TTITLE30=Blues Riff 31
TTITLE31=Blues Riff 32
TTITLE32=Blues Riff 33
TTITLE33=Blues Riff 34
TTITLE34=Blues Riff 35
TTITLE35=Blues Riff 36
TTITLE36=Blues Riff 37
TTITLE37=Blues Riff 38
TTITLE38=Blues Riff 39
TTITLE39=Blues Riff 40
TTITLE40=Blues Riff 41
TTITLE41=Blues Riff 42
TTITLE42=Blues Riff 43
TTITLE43=Blues Riff 44
TTITLE44=Blues Riff 45
TTITLE45=Blues Riff 46
TTITLE46=Blues Riff 47
TTITLE47=Blues Riff 48
TTITLE48=Blues Riff 49
TTITLE49=Blues Riff 50
TTITLE50=Blues Riff 51
TTITLE51=Blues Riff 52
TTITLE52=Blues Riff 53
TTITLE53=Blues Riff 54
TTITLE54=Blues Riff 55
TTITLE55=Blues Riff 56
TTITLE56=Blues Riff 57
TTITLE57=Blues Riff 58
TTITLE58=Blues Riff 59
TTITLE59=Blues Riff 60
TTITLE60=Blues Riff 61
TTITLE61=Blues Riff 62
TTITLE62=Blues Riff 63
TTITLE63=Blues Riff 64
TTITLE64=Blues Riff 65
TTITLE65=Blues Riff 66
TTITLE66=Blues Riff 67
TTITLE67=Blues Riff 68
TTITLE68=Blues Riff 69
TTITLE69=Blues Riff 70
TTITLE70=Blues Riff 71
TTITLE71=Blues Riff 72
TTITLE72=Blues Riff 73
TTITLE73=Blues Riff 74
TTITLE74=Blues Riff 75
TTITLE75=Blues Riff 76
TTITLE76=Blues Riff 77
TTITLE77=Blues Riff 78
TTITLE78=Blues Riff 79
TTITLE79=Blues Riff 80
TTITLE80=Blues Riff 81
TTITLE81=Blues Riff 82
TTITLE82=Blues Riff 83
TTITLE83=Blues Riff 84
TTITLE84=Blues Riff 85
TTITLE85=Blues Riff 86
TTITLE86=Blues Riff 87
TTITLE87=Blues Riff 88
TTITLE88=Blues Riff 89
TTITLE89=Blues Riff 90
TTITLE90=Blues Riff 91
TTITLE91=Blues Riff 92
TTITLE92=Blues Riff 93
TTITLE93=Blues Riff 94
TTITLE94=Blues Riff 95
TTITLE95=Blues Riff 96
EXTD=
EXTT0=
EXTT1=
EXTT2=
EXTT3=
EXTT4=
EXTT5=
EXTT6=
EXTT7=
EXTT8=
EXTT9=
EXTT10=
EXTT11=
EXTT12=
EXTT13=
EXTT14=
EXTT15=
EXTT16=
EXTT17=
EXTT18=
EXTT19=
EXTT20=
EXTT21=
EXTT22=
EXTT23=
EXTT24=
EXTT25=
EXTT26=
EXTT27=
EXTT28=
EXTT29=
EXTT30=
EXTT31=
EXTT32=
EXTT33=
EXTT34=
EXTT35=
EXTT36=
EXTT37=
EXTT38=
EXTT39=
EXTT40=
EXTT41=
EXTT42=
EXTT43=
EXTT44=
EXTT45=
EXTT46=
EXTT47=
EXTT48=
EXTT49=
EXTT50=
EXTT51=
EXTT52=
EXTT53=
EXTT54=
EXTT55=
EXTT56=
EXTT57=
EXTT58=
EXTT59=
EXTT60=
EXTT61=
EXTT62=
EXTT63=
EXTT64=
EXTT65=
EXTT66=
EXTT67=
EXTT68=
EXTT69=
EXTT70=
EXTT71=
EXTT72=
EXTT73=
EXTT74=
EXTT75=
EXTT76=
EXTT77=
EXTT78=
EXTT79=
EXTT80=
EXTT81=
EXTT82=
EXTT83=
EXTT84=
EXTT85=
EXTT86=
EXTT87=
EXTT88=
EXTT89=
EXTT90=
EXTT91=
EXTT92=
EXTT93=
EXTT94=
EXTT95=
PLAYORDER=
